<svg width="124" height="38" viewBox="0 0 124 38" fill="none" xmlns="http://www.w3.org/2000/svg">
<path d="M65.6406 7.25V30H60.9531L51.8125 14.75V30H47.125V7.25H51.8125L60.9688 22.5156V7.25H65.6406ZM77.2188 30.3125C75.9062 30.3125 74.7292 30.1042 73.6875 29.6875C72.6458 29.2604 71.7604 28.6719 71.0312 27.9219C70.3125 27.1719 69.7604 26.3021 69.375 25.3125C68.9896 24.3125 68.7969 23.25 68.7969 22.125V21.5C68.7969 20.2188 68.9792 19.0469 69.3438 17.9844C69.7083 16.9219 70.2292 16 70.9062 15.2188C71.5938 14.4375 72.4271 13.8385 73.4062 13.4219C74.3854 12.9948 75.4896 12.7812 76.7188 12.7812C77.9167 12.7812 78.9792 12.9792 79.9062 13.375C80.8333 13.7708 81.6094 14.3333 82.2344 15.0625C82.8698 15.7917 83.349 16.6667 83.6719 17.6875C83.9948 18.6979 84.1562 19.8229 84.1562 21.0625V22.9375H70.7188V19.9375H79.7344V19.5938C79.7344 18.9688 79.6198 18.4115 79.3906 17.9219C79.1719 17.4219 78.8385 17.026 78.3906 16.7344C77.9427 16.4427 77.3698 16.2969 76.6719 16.2969C76.0781 16.2969 75.5677 16.4271 75.1406 16.6875C74.7135 16.9479 74.3646 17.3125 74.0938 17.7812C73.8333 18.25 73.6354 18.8021 73.5 19.4375C73.375 20.0625 73.3125 20.75 73.3125 21.5V22.125C73.3125 22.8021 73.4062 23.4271 73.5938 24C73.7917 24.5729 74.0677 25.0677 74.4219 25.4844C74.7865 25.901 75.224 26.224 75.7344 26.4531C76.2552 26.6823 76.8438 26.7969 77.5 26.7969C78.3125 26.7969 79.0677 26.6406 79.7656 26.3281C80.474 26.0052 81.0833 25.5208 81.5938 24.875L83.7812 27.25C83.4271 27.7604 82.9427 28.25 82.3281 28.7188C81.724 29.1875 80.9948 29.5729 80.1406 29.875C79.2865 30.1667 78.3125 30.3125 77.2188 30.3125ZM91.5469 25.625L95.0625 13.0938H97.9219L97 18.0156L93.4844 30H91.0938L91.5469 25.625ZM89.7656 13.0938L92.2812 25.6094L92.5156 30H89.7031L85.4219 13.0938H89.7656ZM101.141 25.4062L103.594 13.0938H107.953L103.672 30H100.875L101.141 25.4062ZM98.3125 13.0938L101.812 25.5312L102.297 30H99.8906L96.375 18.0312L95.4844 13.0938H98.3125ZM119.359 25.3281C119.359 25.0052 119.266 24.7135 119.078 24.4531C118.891 24.1927 118.542 23.9531 118.031 23.7344C117.531 23.5052 116.807 23.2969 115.859 23.1094C115.005 22.9219 114.208 22.6875 113.469 22.4062C112.74 22.1146 112.104 21.7656 111.562 21.3594C111.031 20.9531 110.615 20.474 110.312 19.9219C110.01 19.3594 109.859 18.7188 109.859 18C109.859 17.2917 110.01 16.625 110.312 16C110.625 15.375 111.068 14.8229 111.641 14.3438C112.224 13.8542 112.932 13.474 113.766 13.2031C114.609 12.9219 115.557 12.7812 116.609 12.7812C118.078 12.7812 119.339 13.0156 120.391 13.4844C121.453 13.9531 122.266 14.599 122.828 15.4219C123.401 16.2344 123.688 17.1615 123.688 18.2031H119.188C119.188 17.7656 119.094 17.375 118.906 17.0312C118.729 16.6771 118.448 16.401 118.062 16.2031C117.688 15.9948 117.198 15.8906 116.594 15.8906C116.094 15.8906 115.661 15.9792 115.297 16.1562C114.932 16.3229 114.651 16.5521 114.453 16.8438C114.266 17.125 114.172 17.4375 114.172 17.7812C114.172 18.0417 114.224 18.276 114.328 18.4844C114.443 18.6823 114.625 18.8646 114.875 19.0312C115.125 19.1979 115.448 19.3542 115.844 19.5C116.25 19.6354 116.75 19.7604 117.344 19.875C118.562 20.125 119.651 20.4531 120.609 20.8594C121.568 21.2552 122.328 21.7969 122.891 22.4844C123.453 23.1615 123.734 24.0521 123.734 25.1562C123.734 25.9062 123.568 26.5938 123.234 27.2188C122.901 27.8438 122.422 28.3906 121.797 28.8594C121.172 29.3177 120.422 29.6771 119.547 29.9375C118.682 30.1875 117.708 30.3125 116.625 30.3125C115.052 30.3125 113.719 30.0312 112.625 29.4688C111.542 28.9062 110.719 28.1927 110.156 27.3281C109.604 26.4531 109.328 25.5573 109.328 24.6406H113.594C113.615 25.2552 113.771 25.75 114.062 26.125C114.365 26.5 114.745 26.7708 115.203 26.9375C115.672 27.1042 116.177 27.1875 116.719 27.1875C117.302 27.1875 117.786 27.1094 118.172 26.9531C118.557 26.7865 118.849 26.5677 119.047 26.2969C119.255 26.0156 119.359 25.6927 119.359 25.3281Z" fill="#E1E1E6"/>
<path fill-rule="evenodd" clip-rule="evenodd" d="M31.594 11.9595C36.6816 13.4976 40 15.9778 40 18.5949C40 21.2039 36.6979 23.6841 31.6429 25.2221C32.8251 30.3274 32.3115 34.394 30.0204 35.6985C29.4823 36.0045 28.8626 36.1494 28.1777 36.1494C25.9356 36.1494 23.0004 34.5872 20.0326 31.8655C17.0648 34.6033 14.1296 36.1816 11.8875 36.1816C11.2026 36.1816 10.583 36.0367 10.053 35.7307C7.75377 34.4262 7.23196 30.3516 8.40603 25.2302C3.31838 23.6921 0 21.2119 0 18.5949C0 15.9858 3.30208 13.5137 8.37342 11.9676C7.19119 6.86227 7.70485 2.79572 9.99592 1.49121C10.534 1.18521 11.1537 1.04026 11.8386 1.04026V1.03221C14.0807 1.03221 17.0159 2.59441 19.9837 5.31617C22.9515 2.5783 25.8867 1 28.1288 1V1.00806C28.8024 1.00922 29.4192 1.15423 29.947 1.459C32.2462 2.76351 32.768 6.83811 31.594 11.9595ZM28.1207 2.79573C26.4249 2.80001 23.9338 4.13636 21.2801 6.57237C22.4297 7.7561 23.5711 9.10893 24.6718 10.5987C26.5063 10.7919 28.2511 11.0899 29.8492 11.4764C30.0285 10.6631 30.1753 9.86587 30.265 9.10893C30.64 6.03285 30.159 3.64124 29.0501 3.01314C28.7974 2.87625 28.4957 2.80377 28.1207 2.80377V2.79573ZM18.6873 6.58043C16.0294 4.1566 13.5263 2.82793 11.8386 2.82793V2.83598C11.4635 2.83598 11.1455 2.9004 10.9009 3.04535C9.80025 3.6815 9.32735 6.07311 9.71056 9.14919C9.8084 9.89808 9.947 10.6792 10.1345 11.4844C11.7326 11.0899 13.4774 10.7919 15.32 10.5987C16.4044 9.10893 17.5459 7.76415 18.6873 6.58043ZM28.2837 16.4046C28.7077 15.3336 29.0828 14.2626 29.3844 13.2238C28.3163 12.9661 27.1994 12.7567 26.0416 12.5876C26.4411 13.1996 26.8406 13.8277 27.2157 14.4719C27.5989 15.1161 27.9494 15.7603 28.2837 16.4046ZM23.6853 24.8758C24.362 23.9176 25.0143 22.8869 25.6502 21.7998C26.2617 20.7449 26.8243 19.6658 27.338 18.5868C26.8243 17.5078 26.2617 16.4368 25.6421 15.3819C25.0061 14.3028 24.3457 13.2802 23.669 12.3219C22.4623 12.2253 21.2311 12.1689 20 12.1689C18.7607 12.1689 17.5296 12.2253 16.3147 12.33C15.638 13.2882 14.9857 14.3189 14.3498 15.406C13.7383 16.4609 13.1676 17.54 12.662 18.619C13.1757 19.698 13.7383 20.769 14.3579 21.8239C14.9939 22.903 15.6543 23.9256 16.331 24.8839C17.5377 24.9805 18.7689 25.0369 20 25.0369C21.2393 25.0369 22.4704 24.9805 23.6853 24.8758ZM29.4089 23.9579C29.0991 22.911 28.724 21.832 28.2837 20.7529C27.9494 21.3971 27.5989 22.0494 27.2238 22.6936C26.8488 23.3459 26.4492 23.982 26.0497 24.6021C27.2157 24.433 28.3408 24.2155 29.4089 23.9579ZM17.7497 26.7682C18.4998 27.7104 19.2581 28.572 20.0163 29.345C20.7664 28.572 21.5247 27.7104 22.2585 26.7682C21.5165 26.8085 20.7583 26.8246 19.9918 26.8246C19.2336 26.8246 18.4835 26.8004 17.7497 26.7682ZM10.6074 23.9659C11.6755 24.2236 12.7925 24.433 13.9503 24.6021C13.5508 23.9901 13.1594 23.362 12.7762 22.7178C12.393 22.0736 12.0424 21.4294 11.7081 20.7851C11.2841 21.8561 10.9091 22.9271 10.6074 23.9659ZM22.2422 10.4215C21.4921 9.47935 20.7338 8.61772 19.9755 7.84468C19.2254 8.61772 18.4672 9.47935 17.7334 10.4215C18.4753 10.3812 19.2336 10.3651 20 10.3651C20.7583 10.3651 21.5084 10.3893 22.2422 10.4215ZM12.768 14.4961C13.1431 13.8438 13.5426 13.2077 13.9421 12.5876C12.7762 12.7567 11.651 12.9742 10.583 13.2238C10.8928 14.2706 11.2678 15.3497 11.7081 16.4287C12.0424 15.7845 12.393 15.1403 12.768 14.4961ZM1.81003 18.5949C1.81003 19.8591 3.67713 21.4535 6.56339 22.6694C7.27273 22.9674 8.03914 23.2412 8.84631 23.4908C9.3029 21.9206 9.90624 20.2859 10.6563 18.611C9.89808 16.928 9.28659 15.2852 8.82185 13.7069C8.03098 13.9566 7.26458 14.2223 6.56339 14.5203C3.67713 15.7281 1.81003 17.3306 1.81003 18.5949ZM9.73502 28.0808C9.35997 31.1568 9.84101 33.5485 10.9499 34.1766C11.1945 34.3135 11.5043 34.3859 11.8712 34.394C13.5671 34.394 16.062 33.0573 18.7199 30.6173C17.5703 29.4336 16.4289 28.0808 15.3282 26.591C13.4937 26.3978 11.7489 26.0998 10.1508 25.7133C9.97147 26.5266 9.82471 27.3238 9.73502 28.0808ZM29.0991 34.1443C30.1998 33.5082 30.6726 31.1166 30.2894 28.0405C30.1998 27.2916 30.053 26.5105 29.8655 25.6972C28.2674 26.0918 26.5226 26.3897 24.68 26.583C23.5956 28.0727 22.4541 29.4175 21.3127 30.6012C23.9707 33.025 26.4737 34.3537 28.1614 34.3537C28.5365 34.3537 28.8545 34.2893 29.0991 34.1443ZM31.17 23.4828C31.9609 23.2331 32.7273 22.9674 33.4285 22.6694C36.3147 21.4616 38.1818 19.8591 38.19 18.5949C38.19 17.3306 36.3229 15.7362 33.4366 14.5203C32.7191 14.2223 31.9527 13.9485 31.1455 13.6989C30.689 15.2691 30.0856 16.9038 29.3355 18.5787C30.0938 20.2617 30.7053 21.9045 31.17 23.4828ZM23.7179 18.5949C23.7179 20.6273 22.0497 22.2749 19.9919 22.2749C17.934 22.2749 16.2658 20.6273 16.2658 18.5949C16.2658 16.5625 17.934 14.9149 19.9919 14.9149C22.0497 14.9149 23.7179 16.5625 23.7179 18.5949Z" fill="#ECA318"/>
</svg>
